<?xml version="1.0" encoding="UTF-8"?>
<svg version="1.1" xmlns="http://www.w3.org/2000/svg" width="512" height="512">
<path d="M0 0 C2.87834298 1.30478171 4.93635099 2.68904859 7.1605835 4.92680359 C7.76033997 5.52525589 8.36009644 6.12370819 8.97802734 6.74029541 C9.62433105 7.39536072 10.27063477 8.05042603 10.93652344 8.7253418 C11.62651428 9.41664688 12.31650513 10.10795197 13.02740479 10.82020569 C15.30935604 13.10865164 17.58424938 15.40398852 19.859375 17.69921875 C21.4482404 19.29435725 23.03762384 20.88897989 24.62750244 22.48310852 C28.81752705 26.68644596 33.00195945 30.89530306 37.18481445 35.10577393 C43.8642147 41.82824349 50.55021692 48.54412889 57.23963165 55.25663185 C59.56841531 57.59558028 61.89371887 59.93794702 64.21868896 62.28068542 C65.66097255 63.72980448 67.10336987 65.17881035 68.54589844 66.62768555 C69.50320862 67.59510178 69.50320862 67.59510178 70.4798584 68.58206177 C73.47711851 71.58675649 76.51395024 74.47888927 79.737854 77.23983765 C85.31100007 82.05795962 90.45146278 87.31995835 95.6484375 92.53491211 C96.80209717 93.68885435 97.95597807 94.84257546 99.11006165 95.99609375 C102.22123516 99.10698202 105.32933005 102.22092938 108.43685532 105.33546138 C111.69283607 108.59772125 114.95167573 111.85712272 118.21020508 115.11683655 C124.3707858 121.28051719 130.52881438 127.44674103 136.68591595 133.61389691 C143.69970136 140.63888514 150.71634877 147.6610118 157.73323059 154.68290699 C172.15865979 169.11877024 186.5805153 183.55819914 201 198 C204.44401787 196.37915347 206.60671518 194.57463755 209.25 191.8125 C212.74435352 188.23207866 216.34136619 184.89595745 220.13671875 181.640625 C222.88966984 179.21664291 225.43912123 176.62490074 228 174 C226.90013779 170.80040085 225.50982204 168.28992394 223.5625 165.5625 C217.91046181 156.65676623 216.8372037 145.16514263 219 135 C222.91820948 121.28626682 233.35673709 112.4917872 243.16967773 102.70092773 C244.15317491 101.71607131 245.13646016 100.73100322 246.11955261 99.7457428 C248.75725199 97.10353607 251.3980418 94.46443959 254.03959155 91.82608294 C256.8134703 89.05475704 259.58488468 86.28096832 262.35670471 83.50758362 C267.00057625 78.8619013 271.64653376 74.21831296 276.29370117 69.57592773 C281.66768194 64.20741319 287.03801631 58.83527116 292.40652126 53.46128124 C297.02736285 48.8359079 301.65014227 44.21247809 306.27456051 39.59068066 C309.03208922 36.83471108 311.78893731 34.07806979 314.54403496 31.31966972 C317.12653214 28.73429207 319.7114476 26.15135727 322.29828072 23.57031822 C323.70218946 22.1683687 325.10362851 20.76394741 326.50500488 19.35946655 C327.33616318 18.53112808 328.16732147 17.70278961 329.02366638 16.84934998 C329.74756782 16.12582557 330.47146925 15.40230116 331.21730709 14.65685177 C333.53408476 12.50361653 334.64041905 12.03995344 337.8125 11.6875 C341.82232894 12.08062048 343.28446644 13.05170642 346 16 C347.11790046 19.28383259 347.451715 21.02978977 345.97354126 24.20466614 C343.18769169 28.15055761 339.85323604 31.39931864 336.42333984 34.7878418 C335.65397598 35.55589142 334.88461212 36.32394104 334.0919342 37.11526489 C331.55283706 39.64788099 329.00684391 42.17344939 326.4609375 44.69921875 C324.69591382 46.45797169 322.93140454 48.21724099 321.16738892 49.977005 C317.00017874 54.1322764 312.82889761 58.28342182 308.65525973 62.43223649 C300.73089245 70.30956099 292.81368062 78.19405731 284.90044022 86.08255959 C282.2963694 88.67637714 279.68892927 91.26677264 277.08114624 93.8568573 C275.49327413 95.43790459 273.90550979 97.01906012 272.31787109 98.6003418 C271.58747116 99.32400436 270.85707123 100.04766693 270.10453796 100.79325867 C269.44278061 101.45350037 268.78102325 102.11374207 268.09921265 102.79399109 C267.23258027 103.65534432 267.23258027 103.65534432 266.34844017 104.53409863 C264.32210687 106.73694369 264.00789747 107.9072047 263.75 110.9375 C263.77674522 113.91244441 263.77674522 113.91244441 265.0625 115.875 C268.27572656 117.74074446 270.32533804 117.50430943 274 117 C277.11126422 114.90760126 279.60269596 112.27130685 282.19848633 109.58032227 C283.38025955 108.39767288 283.38025955 108.39767288 284.58590698 107.19113159 C287.18474929 104.58231851 289.7580306 101.94971321 292.33203125 99.31640625 C294.13167081 97.50116968 295.93293811 95.68754554 297.73576355 93.87547302 C301.99243489 89.58971912 306.23350242 85.28911538 310.46703976 80.98055166 C316.68692789 74.6521129 322.93425324 68.35085683 329.18023968 62.04819393 C333.66107509 57.52615972 338.13790618 53.0003891 342.60322571 48.46302795 C343.42307449 47.63160782 344.24292328 46.80018768 345.08761597 45.943573 C346.62331446 44.38599862 348.15706773 42.82650313 349.68855286 41.26478577 C350.36273254 40.58186462 351.03691223 39.89894348 351.73152161 39.19532776 C352.31790814 38.5989277 352.90429468 38.00252764 353.50845051 37.38805485 C356.41317543 34.68488105 359.12221619 34.65244432 363.0234375 34.73046875 C365 35 365 35 367.5 36.5 C369.17321852 39.28869753 369.88399398 41.50071734 369.67578125 44.77497864 C366.72318152 54.49646392 352.65365542 64.41320153 345.55969238 71.42377663 C343.14399382 73.81255256 340.73293681 76.20592222 338.32324219 78.60075378 C331.47934638 85.4021519 324.63256323 92.20056598 317.77001953 98.9831543 C313.5559897 103.1487462 309.35171783 107.32396993 305.15371704 111.50571251 C303.55612382 113.09340381 301.95488032 114.67743081 300.34994507 116.25769997 C298.11466714 118.45933528 295.89201368 120.67300658 293.671875 122.88989258 C293.00700577 123.53880966 292.34213654 124.18772675 291.65711975 124.85630798 C287.30681277 129.15403307 287.30681277 129.15403307 286 135 C286.36856864 137.23167185 286.36856864 137.23167185 287 139 C290.00574476 139.8051102 291.956547 140.29017423 295 140 C297.00122615 138.76644427 297.00122615 138.76644427 298.80389404 136.97615051 C299.49747765 136.3327453 300.19106125 135.6893401 300.90566254 135.02643776 C301.5967939 134.3577133 302.28792526 133.68898884 303 133 C303.62407997 132.39859381 304.24815994 131.79718761 304.89115143 131.17755699 C306.8247485 129.2836981 308.73365954 127.36765569 310.63769531 125.4440918 C311.35420258 124.72451797 312.07070984 124.00494415 312.80892944 123.26356506 C314.34974615 121.71564544 315.88943114 120.16659862 317.4280777 118.61652184 C319.86340835 116.16368172 322.30236902 113.71450482 324.74237061 111.26631165 C331.67401583 104.31030603 338.59990252 97.3485872 345.52148438 90.38256836 C349.76693511 86.11036827 354.01721746 81.84302502 358.2705307 77.57865334 C359.88796773 75.95500593 361.50350446 74.3294632 363.11710358 72.70200157 C365.36684116 70.4330911 367.62263183 68.17036775 369.87988281 65.90893555 C370.544888 65.23516876 371.20989319 64.56140198 371.89505005 63.86721802 C372.51163483 63.25193741 373.1282196 62.6366568 373.76348877 62.00273132 C374.2951125 61.46796519 374.82673622 60.93319906 375.37446976 60.3822279 C378.46635058 57.75312644 380.40148504 56.98931223 384.5 57.0625 C388 58 388 58 390.4375 60.1875 C392.3802852 63.68451336 392.84945396 65.06162257 392 69 C387.74901002 74.7278036 382.41198166 79.70835347 377.33642578 84.69775391 C376.6054921 85.42080215 375.87455841 86.1438504 375.12147522 86.8888092 C373.54892186 88.44428385 371.97531992 89.998699 370.40076065 91.5521431 C367.05216159 94.85842693 363.71307754 98.17425127 360.3733654 101.48950768 C354.16834451 107.64888919 347.95949702 113.8042879 341.734375 119.94335938 C337.3907712 124.22764602 333.05941534 128.52398151 328.7359581 132.82859421 C327.08900398 134.46380014 325.43752262 136.09445936 323.78146744 137.72044754 C321.47174125 139.98925212 319.17794512 142.27308302 316.88720703 144.56103516 C315.85713783 145.56178322 315.85713783 145.56178322 314.80625916 146.58274841 C311.94577112 149.46818694 310.20544656 151.36597025 308.93673706 155.28134155 C308.74840871 158.23687297 308.74840871 158.23687297 311.125 160.9375 C313.74317321 163.28059814 313.74317321 163.28059814 316.44011497 162.82198524 C319.25259109 161.91889239 320.67726386 160.90711808 322.8331604 158.91073608 C323.5222411 158.27691387 324.21132179 157.64309166 324.92128372 156.99006271 C328.21084233 153.84079794 331.46178407 150.66097897 334.66943359 147.42822266 C335.38915344 146.70704254 336.10887329 145.98586243 336.85040283 145.24282837 C338.39779493 143.69165786 339.94403178 142.13933419 341.48920822 140.58595657 C343.9327606 138.12955897 346.37949506 135.67637072 348.82705688 133.22396851 C354.01252659 128.02712198 359.1940355 122.82633746 364.375 117.625 C370.4009552 111.57545387 376.42851749 105.52752729 382.46028519 99.48377609 C384.87428073 97.06328428 387.28525426 94.63980927 389.69613647 92.21621704 C391.16625524 90.74246815 392.63651324 89.26885813 394.10693359 87.79541016 C395.1152272 86.77936707 395.1152272 86.77936707 396.14389038 85.74279785 C396.75772583 85.12889191 397.37156128 84.51498596 398.0039978 83.88247681 C398.53746511 83.34678888 399.07093243 82.81110096 399.62056541 82.25918007 C401.93216218 80.14910062 403.16951054 79.98430458 406.375 79.6875 C410 80 410 80 412.4375 81.5 C414.2025814 84.32413024 414.75419044 86.54256816 414.56974983 89.88186932 C413.87719299 92.45655353 412.8700254 93.67932708 411.07150269 95.64009094 C410.43371761 96.33710428 409.79593254 97.03411762 409.13882065 97.75225258 C405.20088722 101.89073877 401.20181149 105.96308319 397.16845703 110.00854492 C396.19663916 110.9866438 395.22500546 111.96492569 394.25354004 112.94337463 C391.09182151 116.12592184 387.92496179 119.30332756 384.7578125 122.48046875 C383.66121201 123.58112319 382.56464315 124.68180915 381.46810532 125.78252602 C376.31872644 130.95090112 371.16697731 136.11689902 366.01227677 141.27996653 C360.08432455 147.21770409 354.16476104 153.16364449 348.25211823 159.11662596 C343.66360659 163.73535497 339.06739061 168.34632643 334.46539962 172.95162469 C331.72438679 175.69497921 328.9867268 178.44148668 326.25720596 181.19627953 C323.69026307 183.78661052 321.11383266 186.36712383 318.53005981 188.94066429 C317.14270262 190.32729549 315.76522087 191.72378582 314.38815308 193.12063599 C304.98251104 202.4488651 294.94115902 208.01215181 281.5 208.375 C271.95829472 208.10653467 265.05242542 205.4342646 257.12890625 200.20703125 C254.97292553 198.75339304 254.97292553 198.75339304 252 199 C249.87787872 200.71645595 249.87787872 200.71645595 247.75 203 C246.95335937 203.82242188 246.15671875 204.64484375 245.3359375 205.4921875 C242.72413325 208.29616464 240.20100447 211.16165052 237.70703125 214.0703125 C234.94706074 217.19027916 231.97658166 220.08890005 229 223 C233.24804649 228.07151396 237.68147152 232.83986469 242.375 237.5 C243.04200928 238.16507568 243.70901855 238.83015137 244.39624023 239.51538086 C248.09882531 243.18539586 251.85995379 246.70696326 255.84765625 250.06640625 C259.68035061 253.50957087 263.2464681 257.22814967 266.86962891 260.88916016 C269.81048872 263.84893732 272.74397644 266.74711363 275.9375 269.4375 C280.74896362 273.50074465 285.08176655 278.05826003 289.50927734 282.52880859 C293.16830887 286.2097669 296.87731192 289.72158663 300.84765625 293.06640625 C304.68035061 296.50957087 308.2464681 300.22814967 311.86962891 303.88916016 C314.81048872 306.84893732 317.74397644 309.74711363 320.9375 312.4375 C323.60886169 314.73837839 326.1598245 317.10460542 328.640625 319.609375 C329.30457275 320.27654541 329.96852051 320.94371582 330.65258789 321.63110352 C331.98266056 322.97521894 333.31009011 324.32195641 334.63452148 325.67163086 C337.27111056 328.34388195 339.83042271 330.86657383 342.78515625 333.19140625 C347.25168064 336.83867396 349.97426352 342.33390303 350.9375 348 C351.42172368 355.14942022 349.56915592 361.46891651 345 367 C339.00260302 372.9596775 334.38205915 376.27087354 325.6875 376.375 C315.61642431 376.13763458 310.8546161 372.31020281 303.99560547 365.27001953 C300.86041214 361.97583411 297.82170439 358.60870442 294.8671875 355.15234375 C292.50458757 352.42892835 290.06705999 349.77689192 287.625 347.125 C282.71169771 341.78398094 277.84620358 336.40204055 273 331 C271.50028872 329.33307353 270.00028679 327.66640851 268.5 326 C266.27170886 323.52497766 264.0442116 321.04928246 261.8203125 318.5703125 C257.69902273 313.97969436 253.55129287 309.41550032 249.375 304.875 C246.39781719 301.63782784 243.44047144 298.38862271 240.5625 295.0625 C237.45035876 291.47041409 234.23127914 287.98448008 231 284.5 C227.21743822 280.42103914 223.48838001 276.31167144 219.8515625 272.1015625 C216.92681863 268.78191651 213.91724121 265.53980433 210.90600586 262.29858398 C208.1326202 259.29737201 205.51441805 256.22104608 203 253 C198.97713415 254.56966962 196.54800081 257.40925749 193.75 260.5625 C192.67934548 261.74566114 191.60767824 262.92790643 190.53515625 264.109375 C189.9642627 264.74037109 189.39336914 265.37136719 188.80517578 266.02148438 C185.6402733 269.49029283 182.41174343 272.89893962 179.1875 276.3125 C177.81626093 277.76679008 176.44516789 279.22121785 175.07421875 280.67578125 C174.39536621 281.39588379 173.71651367 282.11598633 173.01708984 282.85791016 C169.83885219 286.23310468 166.66930642 289.61642118 163.5 293 C158.34072626 298.50698312 153.17343251 304.00631632 148 309.5 C140.94210676 316.99522125 133.89782745 324.50309498 126.85888672 332.01611328 C124.36534879 334.67732804 121.87106309 337.33784128 119.37670898 339.99829102 C118.12745788 341.33074969 116.87827148 342.66326904 115.62915039 343.99584961 C112.48035881 347.35497143 109.33077022 350.71333974 106.1796875 354.0703125 C105.55006104 354.7415918 104.92043457 355.41287109 104.27172852 356.10449219 C103.01579477 357.44238738 101.75848822 358.77899531 100.49975586 360.11425781 C97.44030807 363.36575148 94.41514998 366.63937538 91.44921875 369.9765625 C90.8783252 370.61190918 90.30743164 371.24725586 89.71923828 371.90185547 C88.65668116 373.08717192 87.60335302 374.28086535 86.56201172 375.48486328 C81.22303803 381.4077594 74.77564325 384.62543975 66.8125 385.25 C59.681535 384.78239574 53.82095888 382.73834499 48.5703125 377.79296875 C43.50387449 372.0081552 40.7522935 365.73394743 41 358 C42.13091734 348.64422926 47.77274092 342.91138531 54.25 336.5625 C54.92168213 335.89726318 55.59336426 335.23202637 56.28540039 334.54663086 C60.15816607 330.73391533 64.09277362 327.0426037 68.24609375 323.53515625 C70.96948419 321.15143143 73.46187451 318.5465337 76 315.96875 C78.56305228 313.44574541 81.27345824 311.12437183 84 308.78125 C86.08337078 306.9257479 88.04281207 304.98776899 90 303 C93.20029522 299.74970017 96.54224576 296.75275755 100 293.78125 C102.08337078 291.9257479 104.04281207 289.98776899 106 288 C109.20029522 284.74970017 112.54224576 281.75275755 116 278.78125 C118.08337078 276.9257479 120.04281207 274.98776899 122 273 C125.20029522 269.74970017 128.54224576 266.75275755 132 263.78125 C134.08337078 261.9257479 136.04281207 259.98776899 138 258 C141.20029522 254.74970017 144.54224576 251.75275755 148 248.78125 C150.08337078 246.9257479 152.04281207 244.98776899 154 243 C157.19208699 239.75803665 160.52130008 236.7653697 163.9765625 233.80859375 C166.91220468 231.18465103 169.62122333 228.35381535 172.3359375 225.50390625 C174 224 174 224 176 224 C170.73428586 217.9385027 165.38337853 211.95711729 160 206 C156.43235715 207.51376081 154.16293713 209.60513129 151.453125 212.3515625 C150.60878906 213.20234375 149.76445312 214.053125 148.89453125 214.9296875 C148.02183594 215.81914062 147.14914063 216.70859375 146.25 217.625 C145.36183594 218.5221875 144.47367188 219.419375 143.55859375 220.34375 C141.36783031 222.55807004 139.18187237 224.77692435 137 227 C132.55380135 222.85187054 129.10677051 218.23931571 125.5625 213.3125 C120.815032 206.78661542 115.98612525 200.34540195 111 194 C106.22197011 187.91116543 101.56689168 181.74872634 97 175.5 C91.82312854 168.41818465 86.51296538 161.45855813 81.10498047 154.55200195 C76.89587151 149.17081804 72.77045662 143.73407229 68.68579102 138.25805664 C64.43187217 132.56017921 60.12676004 126.90228999 55.8125 121.25 C50.99938381 114.94306167 46.2036986 108.62564947 41.4609375 102.265625 C39.42560339 99.55066935 37.35874983 96.86071717 35.2890625 94.171875 C-0.22852049 47.98930247 -0.22852049 47.98930247 -0.09765625 20.5078125 C-0.09443359 19.30898437 -0.09121094 18.11015625 -0.08789062 16.875 C-0.07951172 15.6375 -0.07113281 14.4 -0.0625 13.125 C-0.05798828 11.86429688 -0.05347656 10.60359375 -0.04882812 9.3046875 C-0.0370796 6.20307614 -0.02065167 3.10156275 0 0 Z " fill="#FDB912" transform="translate(58,64)"/>
<path d="M0 0 C4.04683589 1.61620066 6.76164593 4.48581791 9.77086258 7.52476692 C10.34614826 8.09774492 10.92143394 8.67072291 11.51415253 9.26106387 C13.45182125 11.19341441 15.38223987 13.13285058 17.31280518 15.07229614 C18.71001291 16.46863218 20.10765987 17.86452884 21.50570941 19.26002204 C25.35491603 23.10474402 29.19783755 26.95569571 33.03979301 30.80766177 C37.18066523 34.9571501 41.32729411 39.10087851 45.47323608 43.24530029 C52.65847951 50.4294937 59.84004446 57.61734745 67.01914215 64.80768204 C74.54949928 72.3498182 82.08186545 79.88993629 89.61702728 87.4272728 C90.08533754 87.89572053 90.55364779 88.36416826 91.03614926 88.84681138 C93.41441924 91.22575801 95.79272615 93.6046677 98.1710473 95.98356317 C115.02167964 112.83839762 131.86766916 129.69786546 148.7109375 146.56005859 C165.07512699 162.94261338 181.44141335 179.32306872 197.81054688 195.70068359 C198.31501167 196.20541144 198.81947646 196.71013929 199.33922807 197.23016191 C204.40521987 202.29879073 209.47125437 207.36737686 214.53732015 212.43593172 C224.85770814 222.76139229 235.17781108 233.08713773 245.4977417 243.41305542 C245.9722478 243.8878361 246.44675389 244.36261677 246.93563896 244.85178474 C278.62853454 276.56308523 310.31476369 308.28104676 342 340 C338.79548855 344.21065913 336.24049233 346.81725 331 348 C323.28999073 348.80640403 316.27511867 348.92095048 310 344 C304.22072337 338.75911304 298.9357958 333.08188791 293.8671875 327.15234375 C291.50458757 324.42892835 289.06705999 321.77689192 286.625 319.125 C281.71169771 313.78398094 276.84620358 308.40204055 272 303 C270.50028872 301.33307353 269.00028679 299.66640851 267.5 298 C265.27170886 295.52497766 263.0442116 293.04928246 260.8203125 290.5703125 C256.69902273 285.97969436 252.55129287 281.41550032 248.375 276.875 C245.39781719 273.63782784 242.44047144 270.38862271 239.5625 267.0625 C236.45035876 263.47041409 233.23127914 259.98448008 230 256.5 C226.21743822 252.42103914 222.48838001 248.31167144 218.8515625 244.1015625 C215.92681863 240.78191651 212.91724121 237.53980433 209.90600586 234.29858398 C207.1326202 231.29737201 204.51441805 228.22104608 202 225 C197.97713415 226.56966962 195.54800081 229.40925749 192.75 232.5625 C191.67934548 233.74566114 190.60767824 234.92790643 189.53515625 236.109375 C188.9642627 236.74037109 188.39336914 237.37136719 187.80517578 238.02148438 C184.6402733 241.49029283 181.41174343 244.89893962 178.1875 248.3125 C176.81626093 249.76679008 175.44516789 251.22121785 174.07421875 252.67578125 C173.39536621 253.39588379 172.71651367 254.11598633 172.01708984 254.85791016 C168.83885219 258.23310468 165.66930642 261.61642118 162.5 265 C157.34072626 270.50698312 152.17343251 276.00631632 147 281.5 C139.94210676 288.99522125 132.89782745 296.50309498 125.85888672 304.01611328 C123.36534879 306.67732804 120.87106309 309.33784128 118.37670898 311.99829102 C117.12745788 313.33074969 115.87827148 314.66326904 114.62915039 315.99584961 C111.48035881 319.35497143 108.33077022 322.71333974 105.1796875 326.0703125 C104.55006104 326.7415918 103.92043457 327.41287109 103.27172852 328.10449219 C102.01579477 329.44238738 100.75848822 330.77899531 99.49975586 332.11425781 C96.44030807 335.36575148 93.41514998 338.63937538 90.44921875 341.9765625 C89.8783252 342.61190918 89.30743164 343.24725586 88.71923828 343.90185547 C87.65668116 345.08717192 86.60335302 346.28086535 85.56201172 347.48486328 C80.22303803 353.4077594 73.77564325 356.62543975 65.8125 357.25 C58.681535 356.78239574 52.82095888 354.73834499 47.5703125 349.79296875 C42.50387449 344.0081552 39.7522935 337.73394743 40 330 C41.13091734 320.64422926 46.77274092 314.91138531 53.25 308.5625 C53.92168213 307.89726318 54.59336426 307.23202637 55.28540039 306.54663086 C59.15816607 302.73391533 63.09277362 299.0426037 67.24609375 295.53515625 C69.96948419 293.15143143 72.46187451 290.5465337 75 287.96875 C77.56305228 285.44574541 80.27345824 283.12437183 83 280.78125 C85.08337078 278.9257479 87.04281207 276.98776899 89 275 C92.20029522 271.74970017 95.54224576 268.75275755 99 265.78125 C101.08337078 263.9257479 103.04281207 261.98776899 105 260 C108.20029522 256.74970017 111.54224576 253.75275755 115 250.78125 C117.08337078 248.9257479 119.04281207 246.98776899 121 245 C124.20029522 241.74970017 127.54224576 238.75275755 131 235.78125 C133.08337078 233.9257479 135.04281207 231.98776899 137 230 C140.20029522 226.74970017 143.54224576 223.75275755 147 220.78125 C149.08337078 218.9257479 151.04281207 216.98776899 153 215 C156.19208699 211.75803665 159.52130008 208.7653697 162.9765625 205.80859375 C165.91220468 203.18465103 168.62122333 200.35381535 171.3359375 197.50390625 C173 196 173 196 175 196 C169.73428586 189.9385027 164.38337853 183.95711729 159 178 C155.43235715 179.51376081 153.16293713 181.60513129 150.453125 184.3515625 C149.60878906 185.20234375 148.76445312 186.053125 147.89453125 186.9296875 C147.02183594 187.81914062 146.14914063 188.70859375 145.25 189.625 C144.36183594 190.5221875 143.47367188 191.419375 142.55859375 192.34375 C140.36783031 194.55807004 138.18187237 196.77692435 136 199 C131.55380135 194.85187054 128.10677051 190.23931571 124.5625 185.3125 C119.815032 178.78661542 114.98612525 172.34540195 110 166 C105.22197011 159.91116543 100.56689168 153.74872634 96 147.5 C90.82312854 140.41818465 85.51296538 133.45855813 80.10498047 126.55200195 C75.89587151 121.17081804 71.77045662 115.73407229 67.68579102 110.25805664 C63.43187217 104.56017921 59.12676004 98.90228999 54.8125 93.25 C49.99938381 86.94306167 45.2036986 80.62564947 40.4609375 74.265625 C38.42560339 71.55066935 36.35874983 68.86071717 34.2890625 66.171875 C-0.94594463 20.35672838 -0.94594463 20.35672838 0 0 Z " fill="#FED300" transform="translate(59,92)"/>
<path d="M0 0 C3.41639845 1.9739191 4.72268412 3.18538459 6 6.9375 C6 12.99522218 1.66565999 16.56417487 -2.37559509 20.61332703 C-3.10194656 21.3309169 -3.82829803 22.04850677 -4.57666016 22.7878418 C-5.34602402 23.55589142 -6.11538788 24.32394104 -6.9080658 25.11526489 C-9.44716294 27.64788099 -11.99315609 30.17344939 -14.5390625 32.69921875 C-16.30408618 34.45797169 -18.06859546 36.21724099 -19.83261108 37.977005 C-23.99982126 42.1322764 -28.17110239 46.28342182 -32.34474027 50.43223649 C-40.26910755 58.30956099 -48.18631938 66.19405731 -56.09955978 74.08255959 C-58.7036306 76.67637714 -61.31107073 79.26677264 -63.91885376 81.8568573 C-65.50672587 83.43790459 -67.09449021 85.01906012 -68.68212891 86.6003418 C-69.77772881 87.68583565 -69.77772881 87.68583565 -70.89546204 88.79325867 C-71.88809807 89.78362122 -71.88809807 89.78362122 -72.90078735 90.79399109 C-73.76741973 91.65534432 -73.76741973 91.65534432 -74.65155983 92.53409863 C-76.67789313 94.73694369 -76.99210253 95.9072047 -77.25 98.9375 C-77.22325478 101.91244441 -77.22325478 101.91244441 -75.9375 103.875 C-72.72427344 105.74074446 -70.67466196 105.50430943 -67 105 C-63.88873578 102.90760126 -61.39730404 100.27130685 -58.80151367 97.58032227 C-58.01366486 96.79188934 -57.22581604 96.00345642 -56.41409302 95.19113159 C-53.81525071 92.58231851 -51.2419694 89.94971321 -48.66796875 87.31640625 C-46.86832919 85.50116968 -45.06706189 83.68754554 -43.26423645 81.87547302 C-39.00756511 77.58971912 -34.76649758 73.28911538 -30.53296024 68.98055166 C-24.31307211 62.6521129 -18.06574676 56.35085683 -11.81976032 50.04819393 C-7.33892491 45.52615972 -2.86209382 41.0003891 1.60322571 36.46302795 C2.42307449 35.63160782 3.24292328 34.80018768 4.08761597 33.943573 C5.62331446 32.38599862 7.15706773 30.82650313 8.68855286 29.26478577 C9.36273254 28.58186462 10.03691223 27.89894348 10.73152161 27.19532776 C11.31790814 26.5989277 11.90429468 26.00252764 12.50845051 25.38805485 C15.41317543 22.68488105 18.12221619 22.65244432 22.0234375 22.73046875 C24 23 24 23 26.5 24.5 C28.17314969 27.28858282 28.88401323 29.50055821 28.67578125 32.77470398 C25.72284606 42.49849394 11.66601242 52.370019 4.55969238 59.3626461 C0.46654796 63.39432977 -3.61089107 67.44187005 -7.69140625 71.48632812 C-12.86290779 76.60983945 -18.03890582 81.72858931 -23.22998047 86.83227539 C-27.44841944 90.98051195 -31.65209658 95.14320746 -35.84628296 99.31595802 C-37.44211511 100.89820919 -39.04334626 102.4750345 -40.65005493 104.04623985 C-42.89013011 106.23809799 -45.11088409 108.44792119 -47.328125 110.6628418 C-47.99299423 111.30456833 -48.65786346 111.94629486 -49.34288025 112.60746765 C-53.12189617 116.39571852 -53.12189617 116.39571852 -54.49107361 121.49008179 C-55.24095127 126.66177127 -58.15576575 128.95315993 -61.81469727 132.49584961 C-62.52685394 133.20888245 -63.23901062 133.92191528 -63.9727478 134.65655518 C-66.32335569 137.00299272 -68.69447624 139.32747865 -71.06640625 141.65234375 C-72.70296032 143.27770394 -74.33819214 144.90439649 -75.97215271 146.53236389 C-80.27121165 150.80854063 -84.58798416 155.06639171 -88.90869141 159.32067871 C-93.31650233 163.66705602 -97.70732604 168.03051968 -102.09960938 172.39257812 C-110.71653019 180.94519671 -119.35226037 189.47855213 -128 198 C-129.11832809 197.06280291 -130.23362511 196.12198826 -131.34765625 195.1796875 C-131.96906494 194.65616699 -132.59047363 194.13264648 -133.23071289 193.59326172 C-135.44469491 191.59954754 -137.23780733 189.39658203 -139 187 C-127.18440578 175.00717187 -127.18440578 175.00717187 -120.7578125 169.53515625 C-118.03291666 167.15541388 -115.52562445 164.58876506 -113 162 C-114.09986221 158.80040085 -115.49017796 156.28992394 -117.4375 153.5625 C-123.08953819 144.65676623 -124.1627963 133.16514263 -122 123 C-118.08179052 109.28626682 -107.64326291 100.4917872 -97.83032227 90.70092773 C-96.84682509 89.71607131 -95.86353984 88.73100322 -94.88044739 87.7457428 C-92.24274801 85.10353607 -89.6019582 82.46443959 -86.96040845 79.82608294 C-84.1865297 77.05475704 -81.41511532 74.28096832 -78.64329529 71.50758362 C-73.99942375 66.8619013 -69.35346624 62.21831296 -64.70629883 57.57592773 C-59.33231806 52.20741319 -53.96198369 46.83527116 -48.59347874 41.46128124 C-43.97263715 36.8359079 -39.34985773 32.21247809 -34.72543949 27.59068066 C-31.96791078 24.83471108 -29.21106269 22.07806979 -26.45596504 19.31966972 C-23.87346786 16.73429207 -21.2885524 14.15135727 -18.70171928 11.57031822 C-17.29781054 10.1683687 -15.89637149 8.76394741 -14.49499512 7.35946655 C-13.24825768 6.11695885 -13.24825768 6.11695885 -11.97633362 4.84934998 C-10.89048147 3.76406336 -10.89048147 3.76406336 -9.78269291 2.65685177 C-6.608142 -0.29360608 -4.26876924 -0.41850679 0 0 Z " fill="#FED300" transform="translate(399,76)"/>
<path d="M0 0 C1.11742528 0.94505554 2.23304127 1.89225061 3.34790039 2.84033203 C3.9693544 3.36756866 4.59080841 3.8948053 5.23109436 4.4380188 C7.48984343 6.43254214 9.46913965 8.59584591 11.4375 10.875 C12.11683594 11.65617187 12.79617188 12.43734375 13.49609375 13.2421875 C13.99238281 13.82226562 14.48867188 14.40234375 15 15 C12.75521448 19.08685204 10.00003971 22.38475773 6.8125 25.75 C6.29276611 26.30582764 5.77303223 26.86165527 5.23754883 27.43432617 C3.49627925 29.29390723 1.74837402 31.14709852 0 33 C-1.27368814 34.35523323 -2.54711876 35.71070853 -3.8203125 37.06640625 C-6.51958467 39.93861044 -9.22171307 42.80809213 -11.92578125 45.67578125 C-15.79165718 49.77656443 -19.64730812 53.88683298 -23.5 58 C-28.65927374 63.50698312 -33.82656749 69.00631632 -39 74.5 C-46.05789324 81.99522125 -53.10217255 89.50309498 -60.14111328 97.01611328 C-62.63465121 99.67732804 -65.12893691 102.33784128 -67.62329102 104.99829102 C-68.87254212 106.33074969 -70.12172852 107.66326904 -71.37084961 108.99584961 C-74.51964119 112.35497143 -77.66922978 115.71333974 -80.8203125 119.0703125 C-81.44993896 119.7415918 -82.07956543 120.41287109 -82.72827148 121.10449219 C-83.98420523 122.44238738 -85.24151178 123.77899531 -86.50024414 125.11425781 C-89.55969193 128.36575148 -92.58485002 131.63937538 -95.55078125 134.9765625 C-96.40712158 135.92958252 -96.40712158 135.92958252 -97.28076172 136.90185547 C-98.34331884 138.08717192 -99.39664698 139.28086535 -100.43798828 140.48486328 C-105.77696197 146.4077594 -112.22435675 149.62543975 -120.1875 150.25 C-127.93673537 149.74185342 -133.39801117 147.31470735 -139 142 C-138.55899409 137.61120846 -135.62313731 135.21357232 -132.64073181 132.27996826 C-132.07634716 131.71302034 -131.51196251 131.14607241 -130.93047529 130.56194425 C-129.03354742 128.66006677 -127.12608023 126.76912419 -125.21850586 124.87792969 C-123.85812552 123.51839537 -122.49840504 122.1582005 -121.13929749 120.7973938 C-117.44368371 117.10091766 -113.73887891 113.41377795 -110.03239131 109.7282095 C-106.16196378 105.87650838 -102.30000405 102.0163363 -98.43714905 98.15704346 C-91.11915278 90.84837952 -83.79354127 83.54739792 -76.46518284 76.24912572 C-68.12326238 67.94071228 -59.78983699 59.62380059 -51.45712459 51.30615377 C-34.31420495 34.19461006 -17.16061127 17.0938 0 0 Z " fill="#FDB912" transform="translate(245,299)"/>
</svg>
